STARTFONT 2.1
COMMENT Subset of Fusion Pixel Font 12px monospaced zh_hans 2026.09.25 (SIL OFL 1.1, see OFL.txt)
COMMENT https://github.com/TakWolf/fusion-pixel-font - only the characters tools/oled/textos.py uses
COMMENT Generated by tools/oled/cjk_subset.py; glyphs unchanged
FONT -TakWolf-Fusion Pixel 12px Mono zh_Hans-Regular-R-Normal-Sans Serif-12-120-75-75-M-118-ISO10646-1
SIZE 12 75 75
FONTBOUNDINGBOX 12 12 0 -2
STARTPROPERTIES 24
FOUNDRY "TakWolf"
FAMILY_NAME "Fusion Pixel 12px Mono zh_Hans"
WEIGHT_NAME "Regular"
SLANT "R"
SETWIDTH_NAME "Normal"
ADD_STYLE_NAME "Sans Serif"
PIXEL_SIZE 12
POINT_SIZE 120
RESOLUTION_X 75
RESOLUTION_Y 75
SPACING "M"
AVERAGE_WIDTH 118
CHARSET_REGISTRY "ISO10646"
CHARSET_ENCODING "1"
DEFAULT_CHAR 65534
FONT_ASCENT 10
FONT_DESCENT 2
X_HEIGHT 6
CAP_HEIGHT 8
UNDERLINE_POSITION -2
UNDERLINE_THICKNESS 1
FONT_VERSION "2026.09.25"
COPYRIGHT "Copyright (c) 2022, TakWolf (https://takwolf.com)"
LICENSE "This Font Software is licensed under the SIL Open Font License, Version 1.1"
ENDPROPERTIES
CHARS 83
STARTCHAR u4E86
ENCODING 20102
SWIDTH 1000 0
DWIDTH 12 0
BBX 9 11 1 -2
BITMAP
FF80
0080
0100
0200
0400
0400
0400
0400
0400
0400
1C00
ENDCHAR
STARTCHAR u4E91
ENCODING 20113
SWIDTH 1000 0
DWIDTH 12 0
BBX 11 11 0 -2
BITMAP
7FC0
0000
0000
0000
FFE0
0800
0800
1080
1080
2340
7C40
ENDCHAR
STARTCHAR u4EAE.zh_hans
ENCODING 20142
SWIDTH 1000 0
DWIDTH 12 0
BBX 11 11 0 -2
BITMAP
0400
FFE0
2080
3F80
0000
FFE0
8020
1F00
1100
2120
C1E0
ENDCHAR
STARTCHAR u4F60.zh_hans
ENCODING 20320
SWIDTH 1000 0
DWIDTH 12 0
BBX 11 11 0 -2
BITMAP
2800
2FE0
4820
5120
C100
4540
4540
4920
5120
4100
4300
ENDCHAR
STARTCHAR u4FA7
ENCODING 20391
SWIDTH 1000 0
DWIDTH 12 0
BBX 11 11 0 -2
BITMAP
7E20
A2A0
AAA0
AAA0
AAA0
AAA0
AAA0
AAA0
8820
9420
A2E0
ENDCHAR
STARTCHAR u50CF
ENCODING 20687
SWIDTH 1000 0
DWIDTH 12 0
BBX 11 11 0 -2
BITMAP
2780
2880
5FE0
4920
CFE0
4700
59A0
46C0
59A0
46A0
5980
ENDCHAR
STARTCHAR u514B
ENCODING 20811
SWIDTH 1000 0
DWIDTH 12 0
BBX 11 11 0 -2
BITMAP
0400
FFE0
0400
7FC0
4040
4040
7FC0
1100
1120
2120
C1E0
ENDCHAR
STARTCHAR u5173
ENCODING 20851
SWIDTH 1000 0
DWIDTH 12 0
BBX 11 11 0 -2
BITMAP
2080
1100
7FC0
0400
0400
0400
FFE0
0A00
1100
2080
C060
ENDCHAR
STARTCHAR u524D
ENCODING 21069
SWIDTH 1000 0
DWIDTH 12 0
BBX 11 11 0 -2
BITMAP
2080
1100
FFE0
0000
7D40
4540
7D40
4540
7D40
4440
4CC0
ENDCHAR
STARTCHAR u52A8
ENCODING 21160
SWIDTH 1000 0
DWIDTH 12 0
BBX 11 11 0 -2
BITMAP
0100
7900
07E0
0120
F920
2120
4120
4920
9A20
EA20
04C0
ENDCHAR
STARTCHAR u53D8
ENCODING 21464
SWIDTH 1000 0
DWIDTH 12 0
BBX 11 11 0 -2
BITMAP
0400
FFE0
1100
5140
9120
1100
7FC0
2080
1100
0E00
F1E0
ENDCHAR
STARTCHAR u5927
ENCODING 22823
SWIDTH 1000 0
DWIDTH 12 0
BBX 11 11 0 -2
BITMAP
0400
0400
0400
FFE0
0400
0A00
0A00
1100
1100
2080
C060
ENDCHAR
STARTCHAR u5934
ENCODING 22836
SWIDTH 1000 0
DWIDTH 12 0
BBX 11 11 0 -2
BITMAP
2200
1200
4200
2200
0200
FFE0
0400
0500
0880
3040
C020
ENDCHAR
STARTCHAR u597D
ENCODING 22909
SWIDTH 1000 0
DWIDTH 12 0
BBX 11 11 0 -2
BITMAP
27C0
2040
F080
5100
5100
5FE0
9100
5100
2100
5100
8700
ENDCHAR
STARTCHAR u59D4
ENCODING 22996
SWIDTH 1000 0
DWIDTH 12 0
BBX 11 11 0 -2
BITMAP
03C0
7C00
0400
FFE0
2480
C460
0800
FFE0
1080
1F00
E0E0
ENDCHAR
STARTCHAR u5B50
ENCODING 23376
SWIDTH 1000 0
DWIDTH 12 0
BBX 11 11 0 -2
BITMAP
7F80
0080
0100
0200
0400
FFE0
0400
0400
0400
0400
1C00
ENDCHAR
STARTCHAR u5B57
ENCODING 23383
SWIDTH 1000 0
DWIDTH 12 0
BBX 11 11 0 -2
BITMAP
0400
FFE0
8020
BFA0
0100
0200
0400
FFE0
0400
0400
1C00
ENDCHAR
STARTCHAR u5C0F
ENCODING 23567
SWIDTH 1000 0
DWIDTH 12 0
BBX 11 11 0 -2
BITMAP
0400
0400
0400
2480
2440
4440
4420
8420
0400
0400
1C00
ENDCHAR
STARTCHAR u5C48
ENCODING 23624
SWIDTH 1000 0
DWIDTH 12 0
BBX 11 11 0 -2
BITMAP
7FE0
4020
7FE0
4100
5120
5120
5FE0
4100
5120
5120
9FE0
ENDCHAR
STARTCHAR u5C4F
ENCODING 23631
SWIDTH 1000 0
DWIDTH 12 0
BBX 11 11 0 -2
BITMAP
7FE0
4020
7FE0
4840
4480
5FE0
4480
4480
5FE0
4480
9880
ENDCHAR
STARTCHAR u5EA6
ENCODING 24230
SWIDTH 1000 0
DWIDTH 12 0
BBX 11 11 0 -2
BITMAP
0200
7FE0
4880
7FE0
4880
4F80
4000
5FC0
4880
4700
B8E0
ENDCHAR
STARTCHAR u5F00
ENCODING 24320
SWIDTH 1000 0
DWIDTH 12 0
BBX 11 11 0 -2
BITMAP
FFE0
2080
2080
2080
2080
FFE0
2080
2080
4080
4080
8080
ENDCHAR
STARTCHAR u5F69
ENCODING 24425
SWIDTH 1000 0
DWIDTH 12 0
BBX 11 11 0 -2
BITMAP
0620
F840
2280
9200
4420
1040
FE80
3800
5420
9240
1080
ENDCHAR
STARTCHAR u5FC3
ENCODING 24515
SWIDTH 1000 0
DWIDTH 12 0
BBX 11 11 0 -2
BITMAP
0800
0400
0200
1200
1000
5040
5020
5020
90A0
1080
0F80
ENDCHAR
STARTCHAR u60C5
ENCODING 24773
SWIDTH 1000 0
DWIDTH 12 0
BBX 11 11 0 -2
BITMAP
2100
27C0
A100
B7C0
A100
AFE0
2440
27C0
2440
27C0
2440
ENDCHAR
STARTCHAR u60D1.zh_hant
ENCODING 24785
SWIDTH 1000 0
DWIDTH 12 0
BBX 11 11 0 -2
BITMAP
0120
FFE0
0100
7940
4940
7880
0160
F400
0240
5020
8F80
ENDCHAR
STARTCHAR u6233
ENCODING 25139
SWIDTH 1000 0
DWIDTH 12 0
BBX 11 11 0 -2
BITMAP
EEA0
AAA0
6680
ABE0
2280
28A0
7EA0
C840
7E40
48A0
7F20
ENDCHAR
STARTCHAR u6247.zh_hans
ENCODING 25159
SWIDTH 1000 0
DWIDTH 12 0
BBX 11 11 0 -2
BITMAP
0200
7FE0
4020
7FE0
4000
7DE0
54A0
4C60
54A0
6520
8C60
ENDCHAR
STARTCHAR u62AC
ENCODING 25260
SWIDTH 1000 0
DWIDTH 12 0
BBX 11 11 0 -2
BITMAP
4200
4200
E440
4840
5FA0
6020
CFC0
4840
4840
4840
CFC0
ENDCHAR
STARTCHAR u6302
ENCODING 25346
SWIDTH 1000 0
DWIDTH 12 0
BBX 11 11 0 -2
BITMAP
4100
47C0
E100
4100
4FE0
6000
C100
47C0
4100
4100
CFE0
ENDCHAR
STARTCHAR u6545
ENCODING 25925
SWIDTH 1000 0
DWIDTH 12 0
BBX 11 11 0 -2
BITMAP
2200
2200
FBE0
2440
2240
2240
FA80
8A80
8900
8A80
FC60
ENDCHAR
STARTCHAR u6548
ENCODING 25928
SWIDTH 1000 0
DWIDTH 12 0
BBX 11 11 0 -2
BITMAP
1100
FD00
01E0
4A40
8540
4940
4940
2940
1080
2940
C620
ENDCHAR
STARTCHAR u654F
ENCODING 25935
SWIDTH 1000 0
DWIDTH 12 0
BBX 11 11 0 -2
BITMAP
4100
7D00
81E0
7E40
5540
4D40
FF40
5540
4C80
7D40
0620
ENDCHAR
STARTCHAR u6587
ENCODING 25991
SWIDTH 1000 0
DWIDTH 12 0
BBX 11 11 0 -2
BITMAP
0800
0400
FFE0
2080
2080
1100
1100
0A00
0400
1B00
E0E0
ENDCHAR
STARTCHAR u65E0
ENCODING 26080
SWIDTH 1000 0
DWIDTH 12 0
BBX 11 11 0 -2
BITMAP
7FC0
0400
0400
0400
FFE0
0A00
0A00
1200
1220
2220
C3E0
ENDCHAR
STARTCHAR u661F
ENCODING 26143
SWIDTH 1000 0
DWIDTH 12 0
BBX 11 11 0 -2
BITMAP
7FC0
4040
7FC0
4040
7FC0
4400
7FC0
8400
7FC0
0400
FFE0
ENDCHAR
STARTCHAR u666F
ENCODING 26223
SWIDTH 1000 0
DWIDTH 12 0
BBX 11 11 0 -2
BITMAP
7FC0
4040
7FC0
4040
7FC0
0400
FFE0
4040
7FC0
2480
CC60
ENDCHAR
STARTCHAR u6A21
ENCODING 27169
SWIDTH 1000 0
DWIDTH 12 0
BBX 11 11 0 -2
BITMAP
2280
2FE0
F280
27C0
2440
67C0
7440
AFE0
2100
2280
2C60
ENDCHAR
STARTCHAR u6A59
ENCODING 27225
SWIDTH 1000 0
DWIDTH 12 0
BBX 11 11 0 -2
BITMAP
2EA0
22C0
EAA0
2440
27C0
6820
67C0
B440
27C0
2280
2FE0
ENDCHAR
STARTCHAR u6C14
ENCODING 27668
SWIDTH 1000 0
DWIDTH 12 0
BBX 11 11 0 -2
BITMAP
4000
7FC0
8000
7F80
0000
FF80
0080
0080
00A0
00A0
0040
ENDCHAR
STARTCHAR u6CA1
ENCODING 27809
SWIDTH 1000 0
DWIDTH 12 0
BBX 11 11 0 -2
BITMAP
4780
2480
0480
8480
58E0
0000
0FC0
4840
4480
8300
9CE0
ENDCHAR
STARTCHAR u6CE2
ENCODING 27874
SWIDTH 1000 0
DWIDTH 12 0
BBX 11 11 0 -2
BITMAP
4100
2FE0
0920
8900
4FE0
0C20
0A20
4940
4880
8940
9620
ENDCHAR
STARTCHAR u6D6A
ENCODING 28010
SWIDTH 1000 0
DWIDTH 12 0
BBX 11 11 0 -2
BITMAP
4200
2FC0
0840
8FC0
4840
0FC0
0920
4940
4880
8A40
8C20
ENDCHAR
STARTCHAR u6E10
ENCODING 28176
SWIDTH 1000 0
DWIDTH 12 0
BBX 11 11 0 -2
BITMAP
8420
5EC0
0880
9480
54E0
1EA0
04A0
46A0
5CA0
84A0
8520
ENDCHAR
STARTCHAR u706F
ENCODING 28783
SWIDTH 1000 0
DWIDTH 12 0
BBX 11 11 0 -2
BITMAP
27E0
2080
A080
B080
A080
2080
2080
2080
5080
5080
8380
ENDCHAR
STARTCHAR u7075.zh_hans
ENCODING 28789
SWIDTH 1000 0
DWIDTH 12 0
BBX 11 11 0 -2
BITMAP
7FC0
0040
3FC0
0040
7FC0
0400
2440
4480
0A00
3180
C060
ENDCHAR
STARTCHAR u7279
ENCODING 29305
SWIDTH 1000 0
DWIDTH 12 0
BBX 11 11 0 -2
BITMAP
2100
A7C0
F100
A100
2FE0
3040
EFE0
2440
2240
2040
21C0
ENDCHAR
STARTCHAR u751F
ENCODING 29983
SWIDTH 1000 0
DWIDTH 12 0
BBX 11 11 0 -2
BITMAP
4400
4400
7FC0
4400
8400
0400
7FC0
0400
0400
0400
FFE0
ENDCHAR
STARTCHAR u7535
ENCODING 30005
SWIDTH 1000 0
DWIDTH 12 0
BBX 11 11 0 -2
BITMAP
0800
FF80
8880
8880
FF80
8880
8880
FF80
0820
0820
07E0
ENDCHAR
STARTCHAR u7591
ENCODING 30097
SWIDTH 1000 0
DWIDTH 12 0
BBX 11 11 0 -2
BITMAP
9BE0
E020
8940
F880
43E0
78A0
A080
FAE0
2280
5580
8C60
ENDCHAR
STARTCHAR u767D
ENCODING 30333
SWIDTH 1000 0
DWIDTH 12 0
BBX 9 11 1 -2
BITMAP
0800
1000
FF80
8080
8080
8080
FF80
8080
8080
8080
FF80
ENDCHAR
STARTCHAR u773C
ENCODING 30524
SWIDTH 1000 0
DWIDTH 12 0
BBX 11 11 0 -2
BITMAP
EFC0
A840
AFC0
E840
A840
AFC0
E920
A940
A880
EA40
0C20
ENDCHAR
STARTCHAR u78C1
ENCODING 30913
SWIDTH 1000 0
DWIDTH 12 0
BBX 11 11 0 -2
BITMAP
E440
4280
4FE0
8440
E440
A880
AEE0
A440
A880
EAA0
0EE0
ENDCHAR
STARTCHAR u7C89
ENCODING 31881
SWIDTH 1000 0
DWIDTH 12 0
BBX 11 11 0 -2
BITMAP
2280
B280
6440
2440
F820
27C0
6240
7240
A440
2440
2980
ENDCHAR
STARTCHAR u7CCA
ENCODING 31946
SWIDTH 1000 0
DWIDTH 12 0
BBX 11 11 0 -2
BITMAP
24E0
A4A0
7FA0
24E0
F4A0
24A0
6EE0
7AA0
AAA0
2AA0
2F60
ENDCHAR
STARTCHAR u7D2B.zh_hant
ENCODING 32043
SWIDTH 1000 0
DWIDTH 12 0
BBX 11 11 0 -2
BITMAP
2200
BBE0
A200
BE20
E3E0
1200
2440
FFE0
0400
4440
8420
ENDCHAR
STARTCHAR u7EA2
ENCODING 32418
SWIDTH 1000 0
DWIDTH 12 0
BBX 11 11 0 -2
BITMAP
2FE0
2100
4100
9100
E100
2100
4100
F100
0100
3100
CFE0
ENDCHAR
STARTCHAR u7EFF
ENCODING 32511
SWIDTH 1000 0
DWIDTH 12 0
BBX 11 11 0 -2
BITMAP
4FC0
4040
8FC0
A040
DFE0
4100
8920
E540
0380
2540
DB20
ENDCHAR
STARTCHAR u80CC
ENCODING 32972
SWIDTH 1000 0
DWIDTH 12 0
BBX 11 11 0 -2
BITMAP
1200
F260
1380
3220
D1E0
3F80
2080
3F80
2080
3F80
2080
ENDCHAR
STARTCHAR u8272
ENCODING 33394
SWIDTH 1000 0
DWIDTH 12 0
BBX 11 11 0 -2
BITMAP
2000
3F00
4100
FFC0
4440
4440
7FC0
4000
4020
4020
3FE0
ENDCHAR
STARTCHAR u84DD
ENCODING 34013
SWIDTH 1000 0
DWIDTH 12 0
BBX 11 11 0 -2
BITMAP
1100
FFE0
1100
0200
93E0
9480
9040
7FC0
4A40
4A40
FFE0
ENDCHAR
STARTCHAR u8679
ENCODING 34425
SWIDTH 1000 0
DWIDTH 12 0
BBX 11 11 0 -2
BITMAP
23E0
2080
F880
A880
A880
A880
F880
2080
2880
3880
CBE0
ENDCHAR
STARTCHAR u8868
ENCODING 34920
SWIDTH 1000 0
DWIDTH 12 0
BBX 11 11 0 -2
BITMAP
0400
7FC0
0400
7FC0
0400
FFE0
0A00
1220
E140
2C80
3060
ENDCHAR
STARTCHAR u8BA4
ENCODING 35748
SWIDTH 1000 0
DWIDTH 12 0
BBX 11 11 0 -2
BITMAP
4100
2100
0100
0100
E100
2100
2280
2280
2440
3440
2820
ENDCHAR
STARTCHAR u8E66
ENCODING 36454
SWIDTH 1000 0
DWIDTH 12 0
BBX 11 11 0 -2
BITMAP
E100
A920
AFE0
E000
2EE0
2AA0
BEE0
AAA0
AEE0
BAA0
CB60
ENDCHAR
STARTCHAR u8FC7
ENCODING 36807
SWIDTH 1000 0
DWIDTH 12 0
BBX 11 11 0 -2
BITMAP
8080
4080
1FE0
0080
C880
4480
4480
4080
4380
A000
9FE0
ENDCHAR
STARTCHAR u8FEA
ENCODING 36842
SWIDTH 1000 0
DWIDTH 12 0
BBX 11 11 0 -2
BITMAP
8100
4100
0FE0
0920
C920
4FE0
4920
4920
4FE0
A000
9FE0
ENDCHAR
STARTCHAR u94C1
ENCODING 38081
SWIDTH 1000 0
DWIDTH 12 0
BBX 11 11 0 -2
BITMAP
4900
6900
8FC0
E900
5100
4100
EFE0
4100
4280
6440
5820
ENDCHAR
STARTCHAR u955C
ENCODING 38236
SWIDTH 1000 0
DWIDTH 12 0
BBX 11 11 0 -2
BITMAP
4100
6FC0
8480
FFE0
4840
4FC0
E840
4FC0
4480
68A0
50E0
ENDCHAR
STARTCHAR u969C
ENCODING 38556
SWIDTH 1000 0
DWIDTH 12 0
BBX 11 11 0 -2
BITMAP
E100
AFC0
A480
BFE0
C840
AFC0
A840
AFC0
E100
9FE0
8100
ENDCHAR
STARTCHAR u96BE
ENCODING 38590
SWIDTH 1000 0
DWIDTH 12 0
BBX 11 11 0 -2
BITMAP
0280
F280
17E0
9C80
57E0
5480
2480
27E0
5480
5480
87E0
ENDCHAR
STARTCHAR u9752
ENCODING 38738
SWIDTH 1000 0
DWIDTH 12 0
BBX 11 11 0 -2
BITMAP
0400
7FC0
0400
7FC0
0400
FFE0
2080
3F80
2080
3F80
2080
ENDCHAR
STARTCHAR u975B
ENCODING 38747
SWIDTH 1000 0
DWIDTH 12 0
BBX 11 11 0 -2
BITMAP
2080
FBE0
2220
F800
23E0
FC80
4A80
7AE0
4A80
7D80
4860
ENDCHAR
STARTCHAR u97F3
ENCODING 38899
SWIDTH 1000 0
DWIDTH 12 0
BBX 11 11 0 -2
BITMAP
0400
7FC0
2080
1100
FFE0
0000
3F80
2080
3F80
2080
3F80
ENDCHAR
STARTCHAR u9891
ENCODING 39057
SWIDTH 1000 0
DWIDTH 12 0
BBX 11 11 0 -2
BITMAP
23E0
B880
A3E0
A220
FAA0
22A0
6AA0
AAA0
1080
2140
C220
ENDCHAR
STARTCHAR u989C
ENCODING 39068
SWIDTH 1000 0
DWIDTH 12 0
BBX 11 11 0 -2
BITMAP
23E0
F880
53E0
2220
FAA0
92A0
A2A0
8AA0
B080
8940
B220
ENDCHAR
STARTCHAR u98CE
ENCODING 39118
SWIDTH 1000 0
DWIDTH 12 0
BBX 11 11 0 -2
BITMAP
7FC0
4040
4140
5140
4A40
4440
4440
4A40
5140
4060
8020
ENDCHAR
STARTCHAR u9C7C
ENCODING 40060
SWIDTH 1000 0
DWIDTH 12 0
BBX 11 11 0 -2
BITMAP
2000
3F00
4100
FFC0
4440
7FC0
4440
4440
7FC0
0000
FFE0
ENDCHAR
STARTCHAR u9EA6
ENCODING 40614
SWIDTH 1000 0
DWIDTH 12 0
BBX 11 11 0 -2
BITMAP
0400
7FC0
0400
7FC0
0400
FFE0
0800
1FC0
7080
0F00
F0E0
ENDCHAR
STARTCHAR u9EC4
ENCODING 40644
SWIDTH 1000 0
DWIDTH 12 0
BBX 11 11 0 -2
BITMAP
1100
7FC0
1100
FFE0
0400
7FC0
4440
7FC0
4440
7FC0
C060
ENDCHAR
STARTCHAR u9ED8
ENCODING 40664
SWIDTH 1000 0
DWIDTH 12 0
BBX 11 11 0 -2
BITMAP
FCA0
94A0
DC80
97E0
FC80
1080
FC80
1140
FD40
0140
AA20
ENDCHAR
STARTCHAR u9F3B
ENCODING 40763
SWIDTH 1000 0
DWIDTH 12 0
BBX 11 11 0 -2
BITMAP
0800
3F80
2080
3F80
2080
7FC0
4440
7FC0
4440
FFE0
2080
ENDCHAR
STARTCHAR uFF01.zh_hans
ENCODING 65281
SWIDTH 1000 0
DWIDTH 12 0
BBX 3 9 1 -1
BITMAP
40
E0
E0
E0
40
40
40
00
40
ENDCHAR
ENDFONT
